<svg width="640" height="480" viewBox="0 0 640 480" fill="none" xmlns="http://www.w3.org/2000/svg">
<rect width="640" height="480" fill="#F5F5F5"/>
<g id="Web &#226;&#128;&#148; Composants du site">
<path d="M-72 -4744.09C-72 -4745.19 -71.1046 -4746.09 -70 -4746.09H2826C2827.1 -4746.09 2828 -4745.19 2828 -4744.09V1102C2828 1103.1 2827.1 1104 2826 1104H-70.0001C-71.1047 1104 -72 1103.1 -72 1102V-4744.09Z" fill="white"/>
<path d="M-70 -4746.09V-4745.09H2826V-4746.09V-4747.09H-70V-4746.09ZM2828 -4744.09H2827V1102H2828H2829V-4744.09H2828ZM2826 1104V1103H-70.0001V1104V1105H2826V1104ZM-72 1102H-71V-4744.09H-72H-73V1102H-72ZM-70.0001 1104V1103C-70.5523 1103 -71 1102.55 -71 1102H-72H-73C-73 1103.66 -71.657 1105 -70.0001 1105V1104ZM2828 1102H2827C2827 1102.55 2826.55 1103 2826 1103V1104V1105C2827.66 1105 2829 1103.66 2829 1102H2828ZM2826 -4746.09V-4745.09C2826.55 -4745.09 2827 -4744.64 2827 -4744.09H2828H2829C2829 -4745.74 2827.66 -4747.09 2826 -4747.09V-4746.09ZM-70 -4746.09V-4747.09C-71.6569 -4747.09 -73 -4745.74 -73 -4744.09H-72H-71C-71 -4744.64 -70.5522 -4745.09 -70 -4745.09V-4746.09Z" fill="black" fill-opacity="0.1"/>
<g id="Web/Illustration">
<g id="Sc&#195;&#168;ne=livraison" clip-path="url(#clip0_43_2)">
<rect width="640" height="480" fill="#FAF5ED"/>
<g id="Art" clip-path="url(#clip1_43_2)">
<path id="Vector" d="M640 0H0V480H640V0Z" fill="url(#paint0_linear_43_2)"/>
<path id="Vector_2" opacity="0.6" d="M110 160C143.137 160 170 133.137 170 100C170 66.8629 143.137 40 110 40C76.8629 40 50 66.8629 50 100C50 133.137 76.8629 160 110 160Z" fill="white"/>
<g id="Group">
<path id="Vector_3" d="M570 400C573.6 358 572.4 313 566.4 265" stroke="#46423D" stroke-width="8.1" stroke-linecap="round"/>
<g id="Vector_4">
<path d="M566.4 265C536.4 259 512.4 265 494.4 283C518.4 265 542.4 259 566.4 265ZM566.4 265C596.4 256.6 621.6 260.8 642 277.6C615.6 263.2 590.4 259 566.4 265ZM566.4 265C548.4 241 527.4 229 503.4 229C527.4 235 548.4 247 566.4 265ZM566.4 265C584.4 238.6 606.6 226.6 633 229C606.6 233.8 584.4 245.8 566.4 265Z" fill="#557E1B"/>
<path d="M566.4 265C596.4 256.6 621.6 260.8 642 277.6C615.6 263.2 590.4 259 566.4 265C536.4 259 512.4 265 494.4 283C518.4 265 542.4 259 566.4 265ZM566.4 265C548.4 241 527.4 229 503.4 229C527.4 235 548.4 247 566.4 265ZM566.4 265C584.4 238.6 606.6 226.6 633 229C606.6 233.8 584.4 245.8 566.4 265Z" stroke="#557E1B" stroke-width="9" stroke-linejoin="round"/>
</g>
</g>
<path id="Vector_5" d="M640 400H0V480H640V400Z" fill="#46423D"/>
<g id="Group_2">
<path id="Vector_6" d="M230 430C246.569 430 260 416.569 260 400C260 383.431 246.569 370 230 370C213.431 370 200 383.431 200 400C200 416.569 213.431 430 230 430Z" fill="#2E2B28"/>
<path id="Vector_7" d="M230 411C236.075 411 241 406.075 241 400C241 393.925 236.075 389 230 389C223.925 389 219 393.925 219 400C219 406.075 223.925 411 230 411Z" fill="#E4E1DC"/>
<path id="Vector_8" d="M420 430C436.569 430 450 416.569 450 400C450 383.431 436.569 370 420 370C403.431 370 390 383.431 390 400C390 416.569 403.431 430 420 430Z" fill="#2E2B28"/>
<path id="Vector_9" d="M420 411C426.075 411 431 406.075 431 400C431 393.925 426.075 389 420 389C413.925 389 409 393.925 409 400C409 406.075 413.925 411 420 411Z" fill="#E4E1DC"/>
<path id="Vector_10" d="M230 400H300C320 360 360 346.667 420 360V400" stroke="#FF7A00" stroke-width="22" stroke-linejoin="round"/>
<path id="Vector_11" d="M270 300H200C194.477 300 190 304.477 190 310V370C190 375.523 194.477 380 200 380H270C275.523 380 280 375.523 280 370V310C280 304.477 275.523 300 270 300Z" fill="#FF7A00"/>
<path id="Vector_12" opacity="0.7" d="M266 312H204C201.791 312 200 313.791 200 316V318C200 320.209 201.791 322 204 322H266C268.209 322 270 320.209 270 318V316C270 313.791 268.209 312 266 312Z" fill="white"/>
<g id="Vector_13">
<path d="M400 300L420 260L400 300Z" fill="black"/>
<path d="M400 300L420 260" stroke="#2E2B28" stroke-width="10" stroke-linecap="round"/>
</g>
</g>
<g id="Group_3">
<path id="Vector_14" d="M317.2 317.75L320.05 370H336.2L340 332L343.8 370H359.95L362.8 317.75H317.2Z" fill="#2E2B28"/>
<path id="Vector_15" d="M311.5 322.5V273.1C311.5 256.633 319.733 248.4 336.2 248.4H343.8C360.267 248.4 368.5 256.633 368.5 273.1V322.5H311.5Z" fill="#7DB928"/>
<path id="Vector_16" d="M346.65 238.9H333.35V252.2H346.65V238.9Z" fill="#6B3E26"/>
<path id="Vector_17" d="M364.7 265.5C376.1 279.433 387.5 285.133 398.9 282.6" stroke="#7DB928" stroke-width="12.35" stroke-linecap="round"/>
<path id="Vector_18" d="M400.8 288.3C404.473 288.3 407.45 285.323 407.45 281.65C407.45 277.977 404.473 275 400.8 275C397.127 275 394.15 277.977 394.15 281.65C394.15 285.323 397.127 288.3 400.8 288.3Z" fill="#6B3E26"/>
<path id="Vector_19" d="M340 245.55C349.969 245.55 358.05 237.468 358.05 227.5C358.05 217.531 349.969 209.45 340 209.45C330.031 209.45 321.95 217.531 321.95 227.5C321.95 237.468 330.031 245.55 340 245.55Z" fill="#6B3E26"/>
<path id="Vector_20" d="M321.95 223.7C321.95 218.913 323.852 214.322 327.237 210.937C330.622 207.552 335.213 205.65 340 205.65C344.787 205.65 349.378 207.552 352.763 210.937C356.148 214.322 358.05 218.913 358.05 223.7C358.05 219.9 356.783 216.733 354.25 214.2C344.75 204.067 335.25 204.067 325.75 214.2C323.217 216.733 321.95 219.9 321.95 223.7Z" fill="#1C1A18"/>
</g>
<path id="Vector_21" d="M340 231C352.15 231 362 221.15 362 209C362 196.85 352.15 187 340 187C327.85 187 318 196.85 318 209C318 221.15 327.85 231 340 231Z" fill="#FF7A00"/>
<path id="Vector_22" d="M362 208H318V216H362V208Z" fill="#FF7A00"/>
</g>
</g>
</g>
</g>
<defs>
<linearGradient id="paint0_linear_43_2" x1="0" y1="0" x2="460.8" y2="614.4" gradientUnits="userSpaceOnUse">
<stop stop-color="#EAF5DB"/>
<stop offset="1" stop-color="#D5EAB8"/>
</linearGradient>
<clipPath id="clip0_43_2">
<rect width="640" height="480" fill="white"/>
</clipPath>
<clipPath id="clip1_43_2">
<rect width="640" height="480" fill="white"/>
</clipPath>
</defs>
</svg>
