<svg width="640" height="480" viewBox="0 0 640 480" fill="none" xmlns="http://www.w3.org/2000/svg">
<g id="Web &#226;&#128;&#148; Composants du site">
<g id="Web/Illustration">
<g id="Sc&#195;&#168;ne=accueil" clip-path="url(#clip0_43_2)">
<rect width="640" height="480" fill="#FAF5ED"/>
<g id="Art" clip-path="url(#clip1_43_2)">
<path id="Vector" d="M640 0H0V480H640V0Z" fill="url(#paint0_linear_43_2)"/>
<path id="Vector_2" opacity="0.6" d="M520 150C553.137 150 580 123.137 580 90C580 56.8629 553.137 30 520 30C486.863 30 460 56.8629 460 90C460 123.137 486.863 150 520 150Z" fill="white"/>
<g id="Group">
<path id="Vector_3" d="M570 170H390C384.477 170 380 174.477 380 180V390C380 395.523 384.477 400 390 400H570C575.523 400 580 395.523 580 390V180C580 174.477 575.523 170 570 170Z" fill="white"/>
<path id="Vector_4" d="M370 178L480 110L590 178H370Z" fill="#FF7A00"/>
<path id="Vector_5" d="M499 300H461C457.686 300 455 302.686 455 306V394C455 397.314 457.686 400 461 400H499C502.314 400 505 397.314 505 394V306C505 302.686 502.314 300 499 300Z" fill="#F59842"/>
<path id="Vector_6" d="M438 210H406C402.686 210 400 212.686 400 216V248C400 251.314 402.686 254 406 254H438C441.314 254 444 251.314 444 248V216C444 212.686 441.314 210 438 210Z" fill="#D5EAB8"/>
<path id="Vector_7" d="M554 210H522C518.686 210 516 212.686 516 216V248C516 251.314 518.686 254 522 254H554C557.314 254 560 251.314 560 248V216C560 212.686 557.314 210 554 210Z" fill="#D5EAB8"/>
</g>
<path id="Vector_8" d="M0 410C213.333 390 426.667 390 640 410V480H0V410Z" fill="#F8B272"/>
<g id="Group_2">
<path id="Vector_9" d="M90.0001 410C94.4001 358.667 92.9334 303.667 85.6001 245" stroke="#46423D" stroke-width="9.9" stroke-linecap="round"/>
<g id="Vector_10">
<path d="M85.6001 245C48.9334 237.667 19.6001 245 -2.3999 267C26.9334 245 56.2668 237.667 85.6001 245ZM85.6001 245C122.267 234.733 153.067 239.867 178 260.4C145.733 242.8 114.933 237.667 85.6001 245ZM85.6001 245C63.6001 215.667 37.9334 201 8.6001 201C37.9334 208.333 63.6001 223 85.6001 245ZM85.6001 245C107.6 212.733 134.733 198.067 167 201C134.733 206.867 107.6 221.533 85.6001 245Z" fill="#557E1B"/>
<path d="M85.6001 245C122.267 234.733 153.067 239.867 178 260.4C145.733 242.8 114.933 237.667 85.6001 245C48.9334 237.667 19.6001 245 -2.3999 267C26.9334 245 56.2668 237.667 85.6001 245ZM85.6001 245C63.6001 215.667 37.9334 201 8.6001 201C37.9334 208.333 63.6001 223 85.6001 245ZM85.6001 245C107.6 212.733 134.733 198.067 167 201C134.733 206.867 107.6 221.533 85.6001 245Z" stroke="#557E1B" stroke-width="11" stroke-linejoin="round"/>
</g>
</g>
<g id="Group_3">
<path id="Vector_11" d="M222.4 356.75L225.85 420H245.4L250 374L254.6 420H274.15L277.6 356.75H222.4Z" fill="#2E2B28"/>
<path id="Vector_12" d="M215.5 362.5V302.7C215.5 282.767 225.467 272.8 245.4 272.8H254.6C274.533 272.8 284.5 282.767 284.5 302.7V362.5H215.5Z" fill="#7DB928"/>
<path id="Vector_13" d="M258.05 261.3H241.95V277.4H258.05V261.3Z" fill="#6B3E26"/>
<path id="Vector_14" d="M284.5 293.5C301.367 285.833 311.333 268.2 314.4 240.6" stroke="#7DB928" stroke-width="14.95" stroke-linecap="round"/>
<path id="Vector_15" d="M314.4 244.05C318.846 244.05 322.45 240.446 322.45 236C322.45 231.554 318.846 227.95 314.4 227.95C309.954 227.95 306.35 231.554 306.35 236C306.35 240.446 309.954 244.05 314.4 244.05Z" fill="#6B3E26"/>
<path id="Vector_16" d="M250 267.05C265.878 267.05 278.75 254.178 278.75 238.3C278.75 222.422 265.878 209.55 250 209.55C234.122 209.55 221.25 222.422 221.25 238.3C221.25 254.178 234.122 267.05 250 267.05Z" fill="#1C1A18"/>
<path id="Vector_17" d="M250 269.35C262.067 269.35 271.85 259.568 271.85 247.5C271.85 235.433 262.067 225.65 250 225.65C237.932 225.65 228.15 235.433 228.15 247.5C228.15 259.568 237.932 269.35 250 269.35Z" fill="#6B3E26"/>
</g>
<g id="Group_4">
<path id="Vector_18" d="M304.8 362.25L307.95 420H325.8L330 378L334.2 420H352.05L355.2 362.25H304.8Z" fill="#46423D"/>
<path id="Vector_19" d="M298.5 367.5V312.9C298.5 294.7 307.6 285.6 325.8 285.6H334.2C352.4 285.6 361.5 294.7 361.5 312.9V367.5H298.5Z" fill="#FF7A00"/>
<path id="Vector_20" d="M337.35 275.1H322.65V289.8H337.35V275.1Z" fill="#A86B3C"/>
<path id="Vector_21" d="M330 282.45C341.018 282.45 349.95 273.518 349.95 262.5C349.95 251.482 341.018 242.55 330 242.55C318.982 242.55 310.05 251.482 310.05 262.5C310.05 273.518 318.982 282.45 330 282.45Z" fill="#A86B3C"/>
<path id="Vector_22" d="M306.9 260.4C308.3 236.6 316 224.7 330 224.7C348.2 224.7 356.6 235.2 355.2 256.2L306.9 260.4Z" fill="#FF7A00"/>
<path id="Vector_23" d="M344.7 239.4C349.339 239.4 353.1 235.639 353.1 231C353.1 226.361 349.339 222.6 344.7 222.6C340.061 222.6 336.3 226.361 336.3 231C336.3 235.639 340.061 239.4 344.7 239.4Z" fill="#F0550F"/>
</g>
<g id="Group_5">
<path id="Vector_24" d="M200 340H150C144.477 340 140 344.477 140 350V410C140 415.523 144.477 420 150 420H200C205.523 420 210 415.523 210 410V350C210 344.477 205.523 340 200 340Z" fill="#2E2B28"/>
<path id="Vector_25" d="M184 326H166C162.686 326 160 328.686 160 332V336C160 339.314 162.686 342 166 342H184C187.314 342 190 339.314 190 336V332C190 328.686 187.314 326 184 326Z" stroke="#2E2B28" stroke-width="6"/>
<path id="Vector_26" d="M210 370H140V378H210V370Z" fill="#FF7A00"/>
</g>
<path id="Vector_27" d="M-10 452C150 408 300 470 650 420" stroke="white" stroke-opacity="0.45" stroke-width="3"/>
</g>
</g>
</g>
</g>
<defs>
<linearGradient id="paint0_linear_43_2" x1="0" y1="0" x2="460.8" y2="614.4" gradientUnits="userSpaceOnUse">
<stop stop-color="#FCE7D5"/>
<stop offset="1" stop-color="#F8CFAA"/>
</linearGradient>
<clipPath id="clip0_43_2">
<rect width="640" height="480" fill="white"/>
</clipPath>
<clipPath id="clip1_43_2">
<rect width="640" height="480" fill="white"/>
</clipPath>
</defs>
</svg>
